<svg xmlns="http://www.w3.org/2000/svg" viewBox="0 0 360 640" width="360" height="640">
  <defs>
    <linearGradient id="bg4" x1="0%" y1="0%" x2="100%" y2="100%">
      <stop offset="0%" stop-color="#0F172A" />
      <stop offset="100%" stop-color="#1E1B4B" />
    </linearGradient>
  </defs>
  <rect width="360" height="640" rx="32" fill="url(#bg4)" stroke="#334155" stroke-width="2"/>
  
  <text x="24" y="55" fill="#F8FAFC" font-family="-apple-system,BlinkMacSystemFont,sans-serif" font-size="20" font-weight="bold">Analytics &amp; Insights</text>
  
  <!-- Heatmap Matrix Section -->
  <rect x="20" y="80" width="320" height="150" rx="16" fill="#1E293B" stroke="#334155" stroke-width="1"/>
  <text x="36" y="105" fill="#F8FAFC" font-family="-apple-system,BlinkMacSystemFont,sans-serif" font-size="13" font-weight="bold">16-Week Consistency Matrix</text>
  
  <!-- Mini Heatmap Squares -->
  <g transform="translate(36, 120)">
    <rect x="0" y="0" width="14" height="14" rx="3" fill="#10B981"/>
    <rect x="18" y="0" width="14" height="14" rx="3" fill="#059669"/>
    <rect x="36" y="0" width="14" height="14" rx="3" fill="#34D399"/>
    <rect x="54" y="0" width="14" height="14" rx="3" fill="#047857"/>
    <rect x="72" y="0" width="14" height="14" rx="3" fill="#334155"/>
    <rect x="90" y="0" width="14" height="14" rx="3" fill="#10B981"/>
    <rect x="108" y="0" width="14" height="14" rx="3" fill="#34D399"/>
    <rect x="126" y="0" width="14" height="14" rx="3" fill="#059669"/>
    <rect x="144" y="0" width="14" height="14" rx="3" fill="#10B981"/>
    <rect x="162" y="0" width="14" height="14" rx="3" fill="#047857"/>
    <rect x="180" y="0" width="14" height="14" rx="3" fill="#34D399"/>
    <rect x="198" y="0" width="14" height="14" rx="3" fill="#10B981"/>
    <rect x="216" y="0" width="14" height="14" rx="3" fill="#334155"/>
    <rect x="234" y="0" width="14" height="14" rx="3" fill="#059669"/>
    <rect x="252" y="0" width="14" height="14" rx="3" fill="#10B981"/>

    <rect x="0" y="18" width="14" height="14" rx="3" fill="#34D399"/>
    <rect x="18" y="18" width="14" height="14" rx="3" fill="#10B981"/>
    <rect x="36" y="18" width="14" height="14" rx="3" fill="#059669"/>
    <rect x="54" y="18" width="14" height="14" rx="3" fill="#10B981"/>
    <rect x="72" y="18" width="14" height="14" rx="3" fill="#34D399"/>
    <rect x="90" y="18" width="14" height="14" rx="3" fill="#047857"/>
    <rect x="108" y="18" width="14" height="14" rx="3" fill="#10B981"/>
    <rect x="126" y="18" width="14" height="14" rx="3" fill="#334155"/>
    <rect x="144" y="18" width="14" height="14" rx="3" fill="#059669"/>
    <rect x="162" y="18" width="14" height="14" rx="3" fill="#10B981"/>
    <rect x="180" y="18" width="14" height="14" rx="3" fill="#059669"/>
    <rect x="198" y="18" width="14" height="14" rx="3" fill="#34D399"/>
    <rect x="216" y="18" width="14" height="14" rx="3" fill="#10B981"/>
    <rect x="234" y="18" width="14" height="14" rx="3" fill="#047857"/>
    <rect x="252" y="18" width="14" height="14" rx="3" fill="#10B981"/>
  </g>
  <text x="36" y="210" fill="#94A3B8" font-family="-apple-system,BlinkMacSystemFont,sans-serif" font-size="11">Total Deep Work: 84.5 hrs • 112 Sessions</text>

  <!-- 24-Hour Concentration Curve -->
  <rect x="20" y="245" width="320" height="160" rx="16" fill="#1E293B" stroke="#334155" stroke-width="1"/>
  <text x="36" y="272" fill="#F8FAFC" font-family="-apple-system,BlinkMacSystemFont,sans-serif" font-size="13" font-weight="bold">Optimal Cognitive Hours (24h)</text>
  
  <rect x="50" y="350" width="16" height="30" rx="4" fill="#334155"/>
  <rect x="80" y="320" width="16" height="60" rx="4" fill="#6366F1"/>
  <rect x="110" y="295" width="16" height="85" rx="4" fill="#818CF8"/>
  <rect x="140" y="310" width="16" height="70" rx="4" fill="#6366F1"/>
  <rect x="170" y="340" width="16" height="40" rx="4" fill="#334155"/>
  <rect x="200" y="315" width="16" height="65" rx="4" fill="#6366F1"/>
  <rect x="230" y="290" width="16" height="90" rx="4" fill="#A855F7"/>
  <rect x="260" y="330" width="16" height="50" rx="4" fill="#6366F1"/>
  
  <text x="36" y="395" fill="#A855F7" font-family="-apple-system,BlinkMacSystemFont,sans-serif" font-size="11" font-weight="bold">Peak Focus Window: 09:00 - 11:30 AM &amp; 08:00 PM</text>
</svg>
